<?xml version="1.0" encoding="UTF-8"?>
<svg version="1.1" xmlns="http://www.w3.org/2000/svg" width="512" height="512">
<path d="M0 0 C1.01790619 0.00215515 2.03581238 0.0043103 3.08456421 0.00653076 C17.69363523 0.05620146 32.02575853 0.30709809 46.375 3.3125 C47.34985352 3.51117676 48.32470703 3.70985352 49.32910156 3.91455078 C97.7109774 14.03517194 141.69928269 35.9516877 177.375 70.3125 C178.3640332 71.26068604 178.3640332 71.26068604 179.37304688 72.22802734 C188.86130305 81.37247479 197.6012044 90.66984009 205.375 101.3125 C206.23306152 102.46355017 207.09113451 103.61459177 207.94921875 104.765625 C213.98736829 112.95680614 219.34595521 121.47054105 224.375 130.3125 C224.73948242 130.94430176 225.10396484 131.57610352 225.47949219 132.22705078 C247.08534998 169.97532572 256.85198095 212.74189997 256.6875 255.9375 C256.68534485 256.95540619 256.6831897 257.97331238 256.68096924 259.02206421 C256.63129854 273.63113523 256.38040191 287.96325853 253.375 302.3125 C253.07698486 303.77478027 253.07698486 303.77478027 252.77294922 305.26660156 C242.65232806 353.6484774 220.7358123 397.63678269 186.375 433.3125 C185.74287598 433.97185547 185.11075195 434.63121094 184.45947266 435.31054688 C175.31502521 444.79880305 166.01765991 453.5387044 155.375 461.3125 C154.22394983 462.17056152 153.07290823 463.02863451 151.921875 463.88671875 C143.73224019 469.92427396 135.22961724 475.30707302 126.375 480.3125 C125.66778809 480.7146875 124.96057617 481.116875 124.23193359 481.53125 C101.09654164 494.5566741 75.92537591 503.30551461 49.9375 508.625 C49.21860596 508.77235596 48.49971191 508.91971191 47.7590332 509.0715332 C33.08339502 511.86090125 18.55831162 512.66142619 3.64770508 512.62817383 C0.70811513 512.6250221 -2.2304558 512.64854926 -5.16992188 512.67382812 C-18.54306192 512.71848737 -31.43916711 511.51301542 -44.625 509.3125 C-46.33055054 509.03031616 -46.33055054 509.03031616 -48.07055664 508.74243164 C-91.33802759 500.97044532 -132.38793216 480.98345309 -165.625 452.3125 C-166.37007813 451.67828125 -167.11515625 451.0440625 -167.8828125 450.390625 C-181.38779833 438.57948485 -194.05918743 425.82889772 -204.625 411.3125 C-205.48149066 410.16255169 -206.33826433 409.01281411 -207.1953125 407.86328125 C-213.23534209 399.67315742 -218.61867614 391.16870382 -223.625 382.3125 C-224.0271875 381.60528809 -224.429375 380.89807617 -224.84375 380.16943359 C-237.8691741 357.03404164 -246.61801461 331.86287591 -251.9375 305.875 C-252.08485596 305.15610596 -252.23221191 304.43721191 -252.3840332 303.6965332 C-255.35789088 288.05024391 -255.99800362 272.57681954 -255.9375 256.6875 C-255.93534485 255.66959381 -255.9331897 254.65168762 -255.93096924 253.60293579 C-255.88129854 238.99386477 -255.63040191 224.66174147 -252.625 210.3125 C-252.42632324 209.33764648 -252.22764648 208.36279297 -252.02294922 207.35839844 C-241.90232806 158.9765226 -219.9858123 114.98821731 -185.625 79.3125 C-184.99287598 78.65314453 -184.36075195 77.99378906 -183.70947266 77.31445312 C-174.56502521 67.82619695 -165.26765991 59.0862956 -154.625 51.3125 C-153.47394983 50.45443848 -152.32290823 49.59636549 -151.171875 48.73828125 C-142.98224019 42.70072604 -134.47961724 37.31792698 -125.625 32.3125 C-124.91778809 31.9103125 -124.21057617 31.508125 -123.48193359 31.09375 C-100.34654164 18.0683259 -75.17537591 9.31948539 -49.1875 4 C-48.46860596 3.85264404 -47.74971191 3.70528809 -47.0090332 3.5534668 C-31.36274391 0.57960912 -15.88931954 -0.06050362 0 0 Z " fill="#FEAC00" transform="translate(255.625,-0.3125)"/>
<path d="M0 0 C1.01790619 0.00215515 2.03581238 0.0043103 3.08456421 0.00653076 C17.69363523 0.05620146 32.02575853 0.30709809 46.375 3.3125 C47.34985352 3.51117676 48.32470703 3.70985352 49.32910156 3.91455078 C97.7109774 14.03517194 141.69928269 35.9516877 177.375 70.3125 C178.3640332 71.26068604 178.3640332 71.26068604 179.37304688 72.22802734 C188.86130305 81.37247479 197.6012044 90.66984009 205.375 101.3125 C206.23306152 102.46355017 207.09113451 103.61459177 207.94921875 104.765625 C213.98736829 112.95680614 219.34595521 121.47054105 224.375 130.3125 C224.73948242 130.94430176 225.10396484 131.57610352 225.47949219 132.22705078 C247.08534998 169.97532572 256.85198095 212.74189997 256.6875 255.9375 C256.68534485 256.95540619 256.6831897 257.97331238 256.68096924 259.02206421 C256.63129854 273.63113523 256.38040191 287.96325853 253.375 302.3125 C253.07698486 303.77478027 253.07698486 303.77478027 252.77294922 305.26660156 C242.65232806 353.6484774 220.7358123 397.63678269 186.375 433.3125 C185.74287598 433.97185547 185.11075195 434.63121094 184.45947266 435.31054688 C175.31502521 444.79880305 166.01765991 453.5387044 155.375 461.3125 C154.22394983 462.17056152 153.07290823 463.02863451 151.921875 463.88671875 C143.73224019 469.92427396 135.22961724 475.30707302 126.375 480.3125 C125.66778809 480.7146875 124.96057617 481.116875 124.23193359 481.53125 C101.09654164 494.5566741 75.92537591 503.30551461 49.9375 508.625 C49.21860596 508.77235596 48.49971191 508.91971191 47.7590332 509.0715332 C33.08339502 511.86090125 18.55831162 512.66142619 3.64770508 512.62817383 C0.70811513 512.6250221 -2.2304558 512.64854926 -5.16992188 512.67382812 C-18.54306192 512.71848737 -31.43916711 511.51301542 -44.625 509.3125 C-46.33055054 509.03031616 -46.33055054 509.03031616 -48.07055664 508.74243164 C-91.33802759 500.97044532 -132.38793216 480.98345309 -165.625 452.3125 C-166.37007813 451.67828125 -167.11515625 451.0440625 -167.8828125 450.390625 C-181.38779833 438.57948485 -194.05918743 425.82889772 -204.625 411.3125 C-205.48149066 410.16255169 -206.33826433 409.01281411 -207.1953125 407.86328125 C-213.23534209 399.67315742 -218.61867614 391.16870382 -223.625 382.3125 C-224.0271875 381.60528809 -224.429375 380.89807617 -224.84375 380.16943359 C-237.8691741 357.03404164 -246.61801461 331.86287591 -251.9375 305.875 C-252.08485596 305.15610596 -252.23221191 304.43721191 -252.3840332 303.6965332 C-255.35789088 288.05024391 -255.99800362 272.57681954 -255.9375 256.6875 C-255.93534485 255.66959381 -255.9331897 254.65168762 -255.93096924 253.60293579 C-255.88129854 238.99386477 -255.63040191 224.66174147 -252.625 210.3125 C-252.42632324 209.33764648 -252.22764648 208.36279297 -252.02294922 207.35839844 C-241.90232806 158.9765226 -219.9858123 114.98821731 -185.625 79.3125 C-184.99287598 78.65314453 -184.36075195 77.99378906 -183.70947266 77.31445312 C-174.56502521 67.82619695 -165.26765991 59.0862956 -154.625 51.3125 C-153.47394983 50.45443848 -152.32290823 49.59636549 -151.171875 48.73828125 C-142.98224019 42.70072604 -134.47961724 37.31792698 -125.625 32.3125 C-124.91778809 31.9103125 -124.21057617 31.508125 -123.48193359 31.09375 C-100.34654164 18.0683259 -75.17537591 9.31948539 -49.1875 4 C-48.46860596 3.85264404 -47.74971191 3.70528809 -47.0090332 3.5534668 C-31.36274391 0.57960912 -15.88931954 -0.06050362 0 0 Z M-94.625 74.3125 C-95.28983398 74.66570312 -95.95466797 75.01890625 -96.63964844 75.3828125 C-113.47638764 84.34521269 -128.28913289 95.52551629 -142.375 108.375 C-142.89392822 108.84534668 -143.41285645 109.31569336 -143.94750977 109.80029297 C-157.89418378 122.70788992 -169.11552521 138.9570357 -178.625 155.3125 C-179.15601318 156.21983887 -179.15601318 156.21983887 -179.69775391 157.14550781 C-206.05835528 202.74155504 -211.49222131 260.60937995 -198.1328125 311.18359375 C-193.96216095 325.89939065 -187.88754908 339.878573 -180.625 353.3125 C-180.30563477 353.9111084 -179.98626953 354.5097168 -179.65722656 355.12646484 C-171.94281348 369.49406971 -162.32728838 382.06521961 -151.625 394.3125 C-150.54025391 395.58287109 -150.54025391 395.58287109 -149.43359375 396.87890625 C-145.15849427 401.82329724 -140.63419657 406.12491768 -135.625 410.3125 C-134.82191406 411.02664063 -134.01882812 411.74078125 -133.19140625 412.4765625 C-105.85413921 436.2851894 -73.03790423 451.32334742 -37.625 458.3125 C-36.78179199 458.48894043 -35.93858398 458.66538086 -35.06982422 458.84716797 C-2.7209876 465.43977071 34.47849848 462.81688295 65.375 451.3125 C66.67782495 450.85517105 67.98123023 450.39949258 69.28515625 449.9453125 C91.19440628 442.17690624 111.45527717 431.17170288 129.375 416.3125 C130.26493652 415.57483398 130.26493652 415.57483398 131.17285156 414.82226562 C141.7035833 406.03838997 150.77716732 397.03362354 159.375 386.3125 C160.02339844 385.54292969 160.67179687 384.77335937 161.33984375 383.98046875 C187.52544982 352.54703161 205.32161727 308.25355467 205.578125 267.140625 C205.58513931 266.38465027 205.59215363 265.62867554 205.59938049 264.84979248 C205.61680012 262.42063374 205.62323388 259.99171894 205.625 257.5625 C205.62567474 256.73169922 205.62634949 255.90089844 205.62704468 255.04492188 C205.61090972 242.54711351 205.07006633 230.55467449 202.375 218.3125 C202.20339355 217.47976562 202.03178711 216.64703125 201.85498047 215.7890625 C197.86771498 196.57607275 191.73350118 178.56507024 182.375 161.3125 C181.84519531 160.31524902 181.84519531 160.31524902 181.3046875 159.29785156 C169.62690113 137.3599957 153.83402186 115.97547366 134.375 100.3125 C133.38371094 99.49523437 132.39242188 98.67796875 131.37109375 97.8359375 C100.61532889 72.81467796 63.87619936 56.71587269 24.375 52.3125 C23.11973511 52.17001831 23.11973511 52.17001831 21.83911133 52.0246582 C-18.43851679 47.88314174 -58.95915443 54.96588362 -94.625 74.3125 Z " fill="#FCEA68" transform="translate(255.625,-0.3125)"/>
<path d="M0 0 C1.01790619 0.00215515 2.03581238 0.0043103 3.08456421 0.00653076 C17.69363523 0.05620146 32.02575853 0.30709809 46.375 3.3125 C47.34985352 3.51117676 48.32470703 3.70985352 49.32910156 3.91455078 C97.7109774 14.03517194 141.69928269 35.9516877 177.375 70.3125 C178.3640332 71.26068604 178.3640332 71.26068604 179.37304688 72.22802734 C188.86130305 81.37247479 197.6012044 90.66984009 205.375 101.3125 C206.23306152 102.46355017 207.09113451 103.61459177 207.94921875 104.765625 C213.98736829 112.95680614 219.34595521 121.47054105 224.375 130.3125 C224.73948242 130.94430176 225.10396484 131.57610352 225.47949219 132.22705078 C247.08534998 169.97532572 256.85198095 212.74189997 256.6875 255.9375 C256.68534485 256.95540619 256.6831897 257.97331238 256.68096924 259.02206421 C256.63129854 273.63113523 256.38040191 287.96325853 253.375 302.3125 C253.07698486 303.77478027 253.07698486 303.77478027 252.77294922 305.26660156 C242.65232806 353.6484774 220.7358123 397.63678269 186.375 433.3125 C185.74287598 433.97185547 185.11075195 434.63121094 184.45947266 435.31054688 C175.31502521 444.79880305 166.01765991 453.5387044 155.375 461.3125 C154.22394983 462.17056152 153.07290823 463.02863451 151.921875 463.88671875 C143.73224019 469.92427396 135.22961724 475.30707302 126.375 480.3125 C125.66778809 480.7146875 124.96057617 481.116875 124.23193359 481.53125 C101.09654164 494.5566741 75.92537591 503.30551461 49.9375 508.625 C49.21860596 508.77235596 48.49971191 508.91971191 47.7590332 509.0715332 C33.08339502 511.86090125 18.55831162 512.66142619 3.64770508 512.62817383 C0.70811513 512.6250221 -2.2304558 512.64854926 -5.16992188 512.67382812 C-18.54306192 512.71848737 -31.43916711 511.51301542 -44.625 509.3125 C-46.33055054 509.03031616 -46.33055054 509.03031616 -48.07055664 508.74243164 C-91.33802759 500.97044532 -132.38793216 480.98345309 -165.625 452.3125 C-166.37007813 451.67828125 -167.11515625 451.0440625 -167.8828125 450.390625 C-181.38779833 438.57948485 -194.05918743 425.82889772 -204.625 411.3125 C-205.48149066 410.16255169 -206.33826433 409.01281411 -207.1953125 407.86328125 C-213.23534209 399.67315742 -218.61867614 391.16870382 -223.625 382.3125 C-224.0271875 381.60528809 -224.429375 380.89807617 -224.84375 380.16943359 C-237.8691741 357.03404164 -246.61801461 331.86287591 -251.9375 305.875 C-252.08485596 305.15610596 -252.23221191 304.43721191 -252.3840332 303.6965332 C-255.35789088 288.05024391 -255.99800362 272.57681954 -255.9375 256.6875 C-255.93534485 255.66959381 -255.9331897 254.65168762 -255.93096924 253.60293579 C-255.88129854 238.99386477 -255.63040191 224.66174147 -252.625 210.3125 C-252.42632324 209.33764648 -252.22764648 208.36279297 -252.02294922 207.35839844 C-241.90232806 158.9765226 -219.9858123 114.98821731 -185.625 79.3125 C-184.99287598 78.65314453 -184.36075195 77.99378906 -183.70947266 77.31445312 C-174.56502521 67.82619695 -165.26765991 59.0862956 -154.625 51.3125 C-153.47394983 50.45443848 -152.32290823 49.59636549 -151.171875 48.73828125 C-142.98224019 42.70072604 -134.47961724 37.31792698 -125.625 32.3125 C-124.91778809 31.9103125 -124.21057617 31.508125 -123.48193359 31.09375 C-100.34654164 18.0683259 -75.17537591 9.31948539 -49.1875 4 C-48.46860596 3.85264404 -47.74971191 3.70528809 -47.0090332 3.5534668 C-31.36274391 0.57960912 -15.88931954 -0.06050362 0 0 Z M-111.625 50.3125 C-112.78128906 50.92609375 -113.93757813 51.5396875 -115.12890625 52.171875 C-129.77739353 60.23770872 -143.19368361 70.15514283 -155.625 81.3125 C-156.21974121 81.84552734 -156.81448242 82.37855469 -157.42724609 82.92773438 C-164.23020642 89.05947878 -170.83795275 95.19551021 -176.625 102.3125 C-177.59689786 103.46157938 -178.56964191 104.60994328 -179.54296875 105.7578125 C-187.4065862 115.12300754 -194.32846268 124.83162957 -200.625 135.3125 C-201.05409668 136.02631836 -201.48319336 136.74013672 -201.92529297 137.47558594 C-215.89297073 161.01067342 -225.18262476 186.54176351 -230.625 213.3125 C-230.79161133 214.11445801 -230.95822266 214.91641602 -231.12988281 215.74267578 C-233.75063115 229.00105788 -233.90964577 242.2856357 -233.9375 255.75 C-233.94117584 256.60558502 -233.94485168 257.46117004 -233.94863892 258.34268188 C-233.97296148 269.19067501 -233.35437149 279.58505763 -231.625 290.3125 C-231.42232946 291.74727636 -231.22033265 293.18214836 -231.01953125 294.6171875 C-226.79027518 320.5604093 -218.00010243 345.17991538 -205.625 368.3125 C-205.01140625 369.46878906 -204.3978125 370.62507813 -203.765625 371.81640625 C-183.53050356 408.56572804 -152.30502484 440.01079099 -115.625 460.3125 C-114.94244141 460.70211914 -114.25988281 461.09173828 -113.55664062 461.49316406 C-94.61726972 472.27784642 -74.63424067 479.67323843 -53.5 484.8125 C-52.82338318 484.97848694 -52.14676636 485.14447388 -51.449646 485.31549072 C-35.59446126 489.15728496 -20.21396617 490.65184556 -3.94458008 490.57324219 C-1.3254459 490.56255284 1.2929962 490.57319123 3.91210938 490.5859375 C19.66998687 490.60089094 35.24140734 489.57980055 50.5625 485.6875 C51.60656006 485.42735107 52.65062012 485.16720215 53.72631836 484.89916992 C91.95393662 475.10465284 127.02294039 458.210307 156.16015625 431.33984375 C158.12671378 429.53976728 160.14040802 427.8316193 162.1875 426.125 C179.42370376 411.00005815 192.72785505 391.89750807 204.375 372.3125 C204.74963379 371.68730469 205.12426758 371.06210937 205.51025391 370.41796875 C215.4969583 353.50946126 222.62482529 334.33399644 227.375 315.3125 C227.58995117 314.46091309 227.80490234 313.60932617 228.02636719 312.73193359 C228.72359855 309.92958074 229.39781858 307.12274288 230.0625 304.3125 C230.26528564 303.47114502 230.46807129 302.62979004 230.67700195 301.76293945 C234.00949827 287.08464984 234.72650565 272.4297534 234.625 257.4375 C234.62156586 256.60322479 234.61813171 255.76894958 234.61459351 254.90939331 C234.55696545 242.95950716 234.4635452 231.11044825 232.375 219.3125 C232.2296582 218.46929199 232.08431641 217.62608398 231.93457031 216.75732422 C224.0350199 172.67909433 204.21922951 132.55645409 174.375 99.3125 C173.64917725 98.49410645 173.64917725 98.49410645 172.90869141 97.65917969 C167.40071319 91.45274611 161.78825839 85.60021396 155.375 80.3125 C154.49457031 79.55582031 153.61414063 78.79914063 152.70703125 78.01953125 C119.19364928 49.46453604 77.9827088 30.63152944 34.375 24.3125 C33.27438232 24.13807373 32.17376465 23.96364746 31.03979492 23.78393555 C20.97887901 22.28435922 11.09697181 21.87110455 0.9375 21.875 C0.09516815 21.87426483 -0.7471637 21.87352966 -1.61502075 21.87277222 C-40.42007806 21.96080899 -77.43428365 32.02169402 -111.625 50.3125 Z " fill="#FEAC00" transform="translate(255.625,-0.3125)"/>
<path d="M0 0 C0.66 0 1.32 0 2 0 C3.3059082 1.85400391 3.3059082 1.85400391 4.80078125 4.4765625 C5.35902588 5.44609863 5.91727051 6.41563477 6.49243164 7.41455078 C7.0930542 8.47399902 7.69367676 9.53344727 8.3125 10.625 C9.5879193 12.84410782 10.86397445 15.06285029 12.140625 17.28125 C12.78708984 18.40917969 13.43355469 19.53710938 14.09960938 20.69921875 C16.88150563 25.53108378 19.71844055 30.32954528 22.5625 35.125 C23.63678519 36.94006484 24.71100388 38.75516905 25.78515625 40.5703125 C26.31512207 41.46524414 26.84508789 42.36017578 27.39111328 43.28222656 C30.09700372 47.85308731 32.79825263 52.42668959 35.5 57 C36.5833114 58.83334629 37.66664473 60.66667963 38.75 62.5 C55 90 55 90 71.25 117.5 C71.7867334 118.40830566 72.3234668 119.31661133 72.87646484 120.25244141 C73.95495927 122.07761077 75.03341011 123.9028059 76.11181641 125.72802734 C78.89381995 130.43648632 81.67668171 135.14443494 84.4609375 139.8515625 C90.00074711 149.21889122 95.53865104 158.58662034 101 168 C97.21026133 168 94.56032154 166.56257794 91.21875 164.95703125 C90.54188141 164.63730347 89.86501282 164.31757568 89.16763306 163.98815918 C86.94239202 162.93519104 84.72121542 161.87393038 82.5 160.8125 C80.95056656 160.07727856 79.40092253 159.34250078 77.85107422 158.6081543 C67.50747917 153.70054296 57.1927323 148.73310975 46.88745117 143.74560547 C37.4001284 139.16443493 27.85225594 134.72003319 18.28369141 130.31176758 C17.18589355 129.80540771 16.0880957 129.29904785 14.95703125 128.77734375 C13.99772705 128.33640381 13.03842285 127.89546387 12.05004883 127.44116211 C9.61933902 126.29264054 7.21225159 125.11467336 4.80937195 123.90992737 C3.73690484 123.37255872 3.73690484 123.37255872 2.64277172 122.82433414 C2.10065705 122.55230388 1.55854239 122.28027361 1 122 C1.00222061 123.17826859 1.00444122 124.35653717 1.00672913 125.57051086 C1.02705376 136.70720479 1.04201692 147.84389492 1.05181217 158.98060322 C1.05701738 164.70525705 1.06407189 170.42989584 1.07543945 176.15454102 C1.08635258 181.68532139 1.09229462 187.21608735 1.09487724 192.74687767 C1.09671636 194.85064101 1.10030756 196.95440362 1.10573006 199.05816078 C1.1581055 220.23176832 1.1581055 220.23176832 0 229 C-3.74300947 227.53936237 -7.14415927 225.87461972 -10.62890625 223.8671875 C-11.73186035 223.23417725 -12.83481445 222.60116699 -13.97119141 221.94897461 C-15.16831605 221.25768746 -16.3654183 220.56636151 -17.5625 219.875 C-18.81409571 219.1553417 -20.06588963 218.43602802 -21.31787109 217.71704102 C-23.91952989 216.22264909 -26.52032864 214.7267756 -29.12060547 213.22998047 C-32.79604166 211.1156111 -36.47691704 209.01089749 -40.16015625 206.91015625 C-41.0268972 206.41576805 -41.0268972 206.41576805 -41.91114807 205.91139221 C-42.48662888 205.58315964 -43.06210968 205.25492706 -43.6550293 204.91674805 C-55.12347556 198.37522311 -66.5673276 191.79226178 -77.99804688 185.18505859 C-86.29684927 180.39321117 -94.62965599 175.66564493 -103 171 C-102.34129126 167.562007 -100.9909128 165.03923569 -99.18359375 162.0546875 C-98.59271973 161.07395264 -98.0018457 160.09321777 -97.39306641 159.08276367 C-96.74772949 158.02420166 -96.10239258 156.96563965 -95.4375 155.875 C-94.76638184 154.76552002 -94.09526367 153.65604004 -93.40380859 152.51293945 C-88.02478002 143.62867007 -82.57965312 134.78460308 -77.12475586 125.94677734 C-72.21290834 117.98658521 -67.34643316 110.00008179 -62.5 102 C-56.38254468 91.90308202 -50.21705453 81.83711799 -44.01953125 71.7890625 C-39.14564668 63.8797724 -34.31437891 55.94556611 -29.5 48 C-23.78183338 38.56361019 -18.03493936 29.1456188 -12.25 19.75 C-11.26676758 18.15285156 -11.26676758 18.15285156 -10.26367188 16.5234375 C-9.05531953 14.56285748 -7.84455829 12.6037591 -6.63085938 10.64648438 C-5.57742631 8.93702113 -4.53612936 7.2199921 -3.50976562 5.49414062 C-2.39119831 3.6309504 -1.20345945 1.80951817 0 0 Z " fill="#FED11A" transform="translate(257,90)"/>
<path d="M0 0 C2.88852522 3.61065653 5.10962394 6.69872361 7.35546875 10.6484375 C7.97309082 11.72834961 8.59071289 12.80826172 9.22705078 13.92089844 C9.87399902 15.06075195 10.52094727 16.20060547 11.1875 17.375 C12.54080595 19.74342781 13.89733429 22.11000423 15.25390625 24.4765625 C16.2286792 26.1786084 16.2286792 26.1786084 17.22314453 27.91503906 C19.31753837 31.55130735 21.45173628 35.16045206 23.625 38.75 C27.20369552 44.66590656 30.73549851 50.60820491 34.25 56.5625 C35.07781982 57.96483887 35.07781982 57.96483887 35.92236328 59.39550781 C37.05189059 61.30932919 38.18128399 63.22322961 39.31054688 65.13720703 C42.03827802 69.7593711 44.76926382 74.37961088 47.5 79 C48.58334979 80.83332361 49.66668311 82.66665695 50.75 84.5 C51.28625 85.4075 51.8225 86.315 52.375 87.25 C58.33333333 97.33333333 64.29166667 107.41666667 70.25 117.5 C70.7867334 118.40830566 71.3234668 119.31661133 71.87646484 120.25244141 C72.95495927 122.07761077 74.03341011 123.9028059 75.11181641 125.72802734 C77.89381995 130.43648632 80.67668171 135.14443494 83.4609375 139.8515625 C89.00074711 149.21889122 94.53865104 158.58662034 100 168 C96.21026133 168 93.56032154 166.56257794 90.21875 164.95703125 C89.54188141 164.63730347 88.86501282 164.31757568 88.16763306 163.98815918 C85.94239202 162.93519104 83.72121542 161.87393038 81.5 160.8125 C79.95056656 160.07727856 78.40092253 159.34250078 76.85107422 158.6081543 C66.50747917 153.70054296 56.1927323 148.73310975 45.88745117 143.74560547 C36.4001284 139.16443493 26.85225594 134.72003319 17.28369141 130.31176758 C16.18589355 129.80540771 15.0880957 129.29904785 13.95703125 128.77734375 C12.99772705 128.33640381 12.03842285 127.89546387 11.05004883 127.44116211 C7.33789381 125.68715178 3.67223606 123.83611803 0 122 C0 81.74 0 41.48 0 0 Z " fill="#FCEA68" transform="translate(258,90)"/>
<path d="M0 0 C0.02323169 12.32686367 0.04097011 24.65372207 0.05181217 36.98060322 C0.05701738 42.70525705 0.06407189 48.42989584 0.07543945 54.15454102 C0.08635258 59.68532139 0.09229462 65.21608735 0.09487724 70.74687767 C0.09671636 72.85064101 0.10030756 74.95440362 0.10573006 77.05816078 C0.1581055 98.23176832 0.1581055 98.23176832 -1 107 C-4.74300947 105.53936237 -8.14415927 103.87461972 -11.62890625 101.8671875 C-12.73186035 101.23417725 -13.83481445 100.60116699 -14.97119141 99.94897461 C-16.16831605 99.25768746 -17.3654183 98.56636151 -18.5625 97.875 C-19.81409571 97.1553417 -21.06588963 96.43602802 -22.31787109 95.71704102 C-24.91952989 94.22264909 -27.52032864 92.7267756 -30.12060547 91.22998047 C-33.7960416 89.11561113 -37.47690921 87.01088369 -41.16015625 84.91015625 C-41.73802887 84.58056412 -42.31590149 84.25097198 -42.9112854 83.91139221 C-43.48680145 83.58315964 -44.0623175 83.25492706 -44.65527344 82.91674805 C-59.13122879 74.65917909 -73.58694066 66.36693491 -88 58 C-88.85158691 57.50790039 -89.70317383 57.01580078 -90.58056641 56.50878906 C-92.76680864 55.24295167 -94.94707631 53.96758031 -97.125 52.6875 C-98.04889526 52.15491577 -98.04889526 52.15491577 -98.99145508 51.61157227 C-100.36259014 50.79721226 -101.68827253 49.90695348 -103 49 C-103 48.34 -103 47.68 -103 47 C-101.26528983 46.19610992 -99.53057939 45.39222041 -97.79586792 44.58833313 C-96.21450391 43.85550312 -94.63314422 43.12266381 -93.05178833 42.38981628 C-88.53568247 40.29693597 -84.01949568 38.20423058 -79.50317383 36.11181641 C-70.86424725 32.10919488 -62.22569882 28.10577593 -53.59016418 24.09584045 C-49.98622977 22.42241666 -46.38190517 20.74983421 -42.77755737 19.07730103 C-41.08312994 18.29075017 -39.38888812 17.50379932 -37.69485474 16.71640015 C-28.43810746 12.41398792 -19.16567357 8.14825727 -9.86328125 3.9453125 C-8.99180954 3.55028534 -8.12033783 3.15525818 -7.22245789 2.7482605 C-6.42241837 2.38805817 -5.62237885 2.02785583 -4.7980957 1.65673828 C-4.08756546 1.33617462 -3.37703522 1.01561096 -2.64497375 0.68533325 C-1 0 -1 0 0 0 Z " fill="#FCEA68" transform="translate(258,212)"/>
<path d="M0 0 C4.13763332 1.37921111 7.65140519 2.69293786 11.5078125 4.58203125 C12.56194336 5.09491699 13.61607422 5.60780273 14.70214844 6.13623047 C15.83168945 6.68939941 16.96123047 7.24256836 18.125 7.8125 C20.56886281 9.00169737 23.01455257 10.18709443 25.4609375 11.37109375 C26.08689819 11.67416443 26.71285889 11.97723511 27.35778809 12.28948975 C33.78674267 15.39404212 40.26573168 18.38795879 46.75 21.375 C57.13492346 26.16713421 67.45809299 31.07434717 77.75 36.0625 C78.41012085 36.38232849 79.0702417 36.70215698 79.75036621 37.03167725 C86.52055964 40.31409885 93.28043438 43.61489219 100 47 C96.39047136 50.01765146 92.68887616 52.49263904 88.63671875 54.87890625 C88.02083389 55.24311172 87.40494904 55.6073172 86.770401 55.9825592 C84.74481189 57.1793757 82.71613159 58.37084923 80.6875 59.5625 C79.25463305 60.40826842 77.82202019 61.25446742 76.38964844 62.10107422 C73.41168198 63.86065205 70.43263315 65.61837406 67.45263672 67.37451172 C61.2080519 71.05531051 54.97092254 74.748654 48.73660278 78.44680786 C47.41332729 79.23160128 46.08982089 80.01600549 44.76608276 80.80001831 C37.45093286 85.13316323 30.15750329 89.49812135 22.90625 93.9375 C21.93090302 94.53381729 21.93090302 94.53381729 20.93585205 95.1421814 C17.84560618 97.03238715 14.75910337 98.92825107 11.67871094 100.83447266 C10.59364258 101.5001123 9.50857422 102.16575195 8.390625 102.8515625 C7.44219727 103.43760254 6.49376953 104.02364258 5.51660156 104.62744141 C3 106 3 106 -1 107 C-0.67 71.69 -0.34 36.38 0 0 Z " fill="#FED21A" transform="translate(258,212)"/>
<path d="M0 0 C4.07566555 1.49234392 7.64164491 3.45687451 11.36328125 5.68359375 C11.97916611 6.05062912 12.59505096 6.41766449 13.229599 6.79582214 C15.25924676 8.006377 17.28585444 9.22192687 19.3125 10.4375 C20.74489896 11.29317142 22.17751998 12.14847119 23.61035156 13.00341797 C25.83717924 14.33233874 28.06377314 15.66164072 30.28952026 16.99237061 C35.26810297 19.96895542 40.25395146 22.9329369 45.24609375 25.88671875 C58.40901691 33.6768393 71.54733933 41.50489947 84.625 49.4375 C85.51040466 49.97386078 85.51040466 49.97386078 86.41369629 50.52105713 C88.08145318 51.53197384 89.74778689 52.54523731 91.4140625 53.55859375 C92.82099365 54.41408813 92.82099365 54.41408813 94.25634766 55.28686523 C95.16175293 55.85219971 96.0671582 56.41753418 97 57 C98.03253906 57.53071609 99.06507813 58.06143219 100.12890625 58.60823059 C103 61 103 61 103.7215271 64.59405518 C103.73887109 66.05647763 103.72306754 67.51952077 103.68115234 68.98144531 C103.68246658 70.18201065 103.68246658 70.18201065 103.68380737 71.40682983 C103.67963225 74.04825993 103.63298799 76.68713958 103.5859375 79.328125 C103.57474499 81.16085421 103.56620506 82.99360139 103.56021118 84.82635498 C103.53731698 89.64698978 103.47838901 94.46653749 103.4119873 99.28674316 C103.35057729 104.20663751 103.32319893 109.12670776 103.29296875 114.046875 C103.22864607 123.69839394 103.12625964 133.34910653 103 143 C100.41844345 140.45963148 98.19317579 138.03425377 96.1875 135.015625 C95.41974243 133.87262939 95.41974243 133.87262939 94.63647461 132.70654297 C94.09643799 131.89588379 93.55640137 131.08522461 93 130.25 C88.78940674 124.00816279 84.4959188 117.86787571 79.9375 111.875 C75.34846488 105.8370732 70.92265958 99.7058624 66.57006836 93.49560547 C62.92453568 88.29751032 59.22681573 83.14009163 55.5 78 C51.29295772 72.19446905 47.1240453 66.36478 43 60.5 C37.28648728 52.37802481 31.48052298 44.32506114 25.65429688 36.28369141 C18.8344457 26.8691566 12.02394128 17.44763756 5.25 8 C4.83145752 7.41831055 4.41291504 6.83662109 3.98168945 6.23730469 C1.1160181 2.23203619 1.1160181 2.23203619 0 0 Z " fill="#FCEA68" transform="translate(153,279)"/>
<path d="M0 0 C0.99 0.495 0.99 0.495 2 1 C0.6794493 2.82845481 -0.64110428 4.65690755 -1.96166992 6.48535156 C-3.12724465 8.09924963 -4.29277079 9.7131828 -5.45825195 11.32714844 C-8.4398056 15.4558835 -11.42201642 19.58413896 -14.40625 23.7109375 C-19.6901089 31.0193503 -24.96356318 38.33449319 -30.1965332 45.67944336 C-33.5674928 50.40635742 -36.97022626 55.10990663 -40.375 59.8125 C-44.62242981 65.68131403 -48.83239752 71.57424407 -53 77.5 C-59.79218798 87.15517744 -66.71820101 96.71205777 -73.64550781 106.27050781 C-75.28532947 108.5339099 -76.9241776 110.79801249 -78.5625 113.0625 C-79.09399658 113.79662109 -79.62549316 114.53074219 -80.1730957 115.28710938 C-82.93388393 119.10876966 -85.6719136 122.94470202 -88.37890625 126.8046875 C-88.92409912 127.58191162 -89.46929199 128.35913574 -90.03100586 129.15991211 C-91.06721749 130.64050919 -92.10073657 132.12299561 -93.13110352 133.60766602 C-93.59572998 134.27209717 -94.06035645 134.93652832 -94.5390625 135.62109375 C-94.94334473 136.2030249 -95.34762695 136.78495605 -95.76416016 137.38452148 C-97 139 -97 139 -100 142 C-100.33 114.61 -100.66 87.22 -101 59 C-97.04 57.02 -93.08 55.04 -89 53 C-86.85143527 51.77699606 -84.7187787 50.52472516 -82.6171875 49.22265625 C-80.98136719 48.2171875 -80.98136719 48.2171875 -79.3125 47.19140625 C-78.47332031 46.67151123 -78.47332031 46.67151123 -77.6171875 46.14111328 C-74.56222002 44.24973907 -71.49639078 42.37617435 -68.4296875 40.50390625 C-67.49428131 39.93266525 -67.49428131 39.93266525 -66.53997803 39.34988403 C-60.42142185 35.62584395 -54.21980827 32.05199014 -48 28.5 C-37.30542917 22.38693152 -26.75518035 16.06056856 -16.24804688 9.6328125 C-13.16868495 7.74968494 -10.08503501 5.87381282 -7 4 C-6.2476709 3.53513184 -5.4953418 3.07026367 -4.72021484 2.59130859 C-3.18270191 1.665158 -1.59693501 0.81945074 0 0 Z " fill="#FED119" transform="translate(356,280)"/>
</svg>
